PathFileType	4	(X/Y/Z)	..\data\2015007\dynamic\2015007_C5_03.trc
DataRate	CameraRate	NumFrames	NumMarkers	Units	OrigDataRate	OrigDataStartFrame	OrigNumFrames
100.000000	100.000000	4	52	mm	100.000000	86	139
Frame#	Time	L_IAS			L_IPS			R_IPS			R_IAS			L_FTC			L_FLE			L_FME			L_FAX			L_TTC			L_FAL			L_TAM			L_FCC			L_FM1			L_FM2			L_FM5			R_FTC			R_FLE			R_FME			R_FAX			R_TTC			R_FAL			R_TAM			R_FCC			R_FM1			R_FM2			R_FM5			CV7			TV10			SXS			SJN			L_SIA			L_SRS			L_SAA			L_SAE			L_HLE			L_HME			L_UOA			L_RSP			L_UHE			L_HM2			L_HM5			R_SIA			R_SRS			R_SAA			R_SAE			R_HLE			R_HME			R_UOA			R_RSP			R_UHE			R_HM2			R_HM5			
		X1	Y1	Z1	X2	Y2	Z2	X3	Y3	Z3	X4	Y4	Z4	X5	Y5	Z5	X6	Y6	Z6	X7	Y7	Z7	X8	Y8	Z8	X9	Y9	Z9	X10	Y10	Z10	X11	Y11	Z11	X12	Y12	Z12	X13	Y13	Z13	X14	Y14	Z14	X15	Y15	Z15	X16	Y16	Z16	X17	Y17	Z17	X18	Y18	Z18	X19	Y19	Z19	X20	Y20	Z20	X21	Y21	Z21	X22	Y22	Z22	X23	Y23	Z23	X24	Y24	Z24	X25	Y25	Z25	X26	Y26	Z26	X27	Y27	Z27	X28	Y28	Z28	X29	Y29	Z29	X30	Y30	Z30	X31	Y31	Z31	X32	Y32	Z32	X33	Y33	Z33	X34	Y34	Z34	X35	Y35	Z35	X36	Y36	Z36	X37	Y37	Z37	X38	Y38	Z38	X39	Y39	Z39	X40	Y40	Z40	X41	Y41	Z41	X42	Y42	Z42	X43	Y43	Z43	X44	Y44	Z44	X45	Y45	Z45	X46	Y46	Z46	X47	Y47	Z47	X48	Y48	Z48	X49	Y49	Z49	X50	Y50	Z50	X51	Y51	Z51	X52	Y52	Z52	

87	0.86	1121.055297851563	885.9270019531252	-389.3951110839845	911.662048339844	904.2342529296877	-289.9864807128907	926.923034667969	899.755798339844	-188.8688201904297	1144.818115234375	886.2442016601565	-136.7436218261719	1012.739135742188	794.833923339844	-436.8052978515626	931.7153930664065	431.9496459960939	-371.3492431640626	924.6087646484377	422.9801635742189	-248.782699584961	897.8978271484377	380.9180603027344	-376.4471435546876	944.2337646484377	356.9501647949219	-323.3823852539063	774.473083496094	80.99361419677736	-324.6478271484376	791.399353027344	85.84990692138673	-242.3037261962891	717.4928588867189	43.06895446777344	-273.6884460449219	894.215270996094	19.58214378356934	-264.0086975097657	897.247985839844	29.06005287170411	-315.4884948730469	839.7876586914065	15.02774620056153	-354.0090637207032	1064.869384765625	783.3442382812502	-67.25025177001955	1225.875122070313	445.1556701660157	-123.2947998046875	1219.849487304688	422.0887145996095	-252.1472625732422	1232.406494140625	391.5042114257814	-116.2528228759766	1286.3876953125	403.017303466797	-161.8758850097657	1347.947143554688	78.41441345214845	-141.2032165527344	1378.097778320313	106.7415771484375	-216.6110839843751	1340.41259765625	16.61831665039063	-200.4621582031251	1495.347778320313	96.3992614746094	-188.9389953613282	1482.920654296875	98.70232391357425	-150.2324981689453	1446.854248046875	54.35546112060548	-106.0058670043946	1029.607421875	1390.545776367188	-236.9504852294922	922.436706542969	1154.345092773438	-261.5932617187501	1192.826171875	1055.05859375	-258.9056701660157	1141.120239257813	1307.524780273438	-247.3990936279297	927.5211181640627	1202.482177734375	-344.9378662109376	973.0053710937502	1329.8876953125	-348.5231628417969	1018.052551269531	1333.997680664063	-409.296356201172	1066.35595703125	1343.760620117188	-421.7418518066407	1046.74853515625	1035.804931640625	-515.2748413085939	1018.618469238281	1019.054260253906	-442.938690185547	1021.115417480469	1002.261352539063	-491.1361083984376	1207.426391601563	857.8255004882815	-482.541473388672	1147.321411132813	826.6823730468752	-523.2704467773439	1254.753784179688	813.2324829101565	-495.9126586914064	1173.355712890625	770.5938720703127	-524.1844482421876	921.6880493164065	1194.5244140625	-179.0484008789063	969.6706542968752	1317.048828125	-169.8277740478516	1019.092956542969	1317.743408203125	-98.16677093505862	1065.878540039063	1319.430297851563	-80.42337036132814	1002.898254394531	1008.486083984375	-0.8604725599288943	972.6887207031252	998.232604980469	-67.9006805419922	975.2070312500002	982.4939575195315	-20.65629959106446	1052.486206054688	785.1539306640627	20.57930183410645	1002.545288085938	796.4218750000002	55.76902008056642	1064.065673828125	704.7937622070314	39.22745895385743	992.119812011719	730.3135986328126	74.08445739746095	
88	0.87	1136.741088867188	883.7647705078127	-389.6747131347657	928.0306396484377	901.853454589844	-288.3304138183594	943.8919677734377	897.182556152344	-187.56640625	1162.052978515625	883.4670410156252	-136.6990966796875	1027.698120117188	792.809020996094	-435.8389282226564	945.2532958984377	430.0166320800782	-371.2254333496094	938.0783691406252	421.3524169921876	-248.5803375244141	910.1026000976565	379.7092895507813	-376.1893615722657	955.9409179687502	354.4669494628907	-323.2947387695313	776.3535766601565	84.36911010742189	-325.8652954101563	792.9809570312502	88.46892547607423	-243.3479156494141	717.9269409179689	48.3053321838379	-274.9031372070313	893.6563720703127	19.2884521484375	-263.9274902343751	896.7698974609377	28.8224105834961	-315.4654541015626	839.5916137695315	14.90532970428467	-354.1740112304688	1082.240356445313	780.7266845703127	-66.93601989746095	1243.2861328125	443.0194091796876	-123.5898971557617	1236.1953125	419.6439514160157	-252.4127960205079	1250.373168945313	389.5144348144532	-116.6377334594727	1304.038330078125	401.6926879882814	-162.7241821289063	1369.850219726563	77.99135589599611	-142.1355590820313	1399.113037109375	106.4375381469727	-217.8501434326172	1362.039794921875	16.31395530700684	-201.3088531494141	1516.889282226563	96.4903259277344	-191.567855834961	1504.956787109375	98.42716217041018	-152.7442932128907	1469.512451171875	53.98259353637697	-108.3911666870117	1045.479248046875	1387.950317382813	-235.9796142578126	938.3784179687502	1151.718017578125	-260.4886474609376	1209.197021484375	1052.592529296875	-258.6973266601563	1157.143310546875	1305.168579101563	-246.5156555175782	943.6234130859377	1199.805786132813	-343.8128051757813	989.0401000976565	1327.277954101563	-347.5336608886719	1034.013916015625	1331.435668945313	-408.3225708007814	1082.326782226563	1341.352294921875	-420.8536376953126	1064.498413085938	1033.5576171875	-514.6660156250001	1036.422485351563	1016.37890625	-442.3733825683595	1039.072021484375	999.6313476562502	-490.6250305175782	1227.030517578125	857.4165649414065	-481.4930419921876	1167.342895507813	825.275085449219	-522.1528930664064	1275.034912109375	813.7049560546877	-494.7967529296876	1194.4013671875	769.559265136719	-522.9216918945314	937.8686523437502	1191.811889648438	-178.04150390625	985.718200683594	1314.380981445313	-168.8307495117188	1035.397827148438	1315.104858398438	-97.1408615112305	1081.910888671875	1316.934204101563	-79.51080322265626	1017.315002441406	1006.459289550781	0.252567082643509	987.3540039062502	996.0567016601565	-66.82867431640626	989.622009277344	980.6235961914065	-19.63432121276856	1065.239624023438	782.986511230469	22.80937194824219	1015.024108886719	794.7534179687502	57.51646041870119	1075.993041992188	702.4827270507814	41.79784011840821	1004.081604003906	728.8572387695314	76.10400390625001	
89	0.88	1152.679321289063	881.896423339844	-389.7479248046876	944.7062988281252	899.6489868164065	-286.7117004394532	961.0961914062502	894.9493408203127	-186.2054443359375	1179.429809570313	881.137634277344	-136.6678466796875	1043.148071289063	790.6551513671877	-434.8008728027345	960.0815429687502	427.8150939941407	-371.2281494140626	952.7324829101565	419.3471679687501	-248.4918518066407	923.518493652344	378.3405761718751	-376.0643310546876	968.847595214844	351.7073059082032	-323.4440612792969	778.8876953125002	88.37506103515626	-327.2187500000001	795.3902587890627	91.54634094238283	-244.6187286376954	719.2031250000001	54.61577606201173	-276.1148071289063	892.7968750000002	18.8888053894043	-263.7633972167969	896.013366699219	28.4706153869629	-315.3523254394532	839.2609863281252	14.9890947341919	-354.3064575195313	1099.928344726563	778.534118652344	-66.53460693359376	1261.222412109375	441.2660522460939	-123.9707489013672	1253.324584960938	417.8361816406251	-252.7147674560547	1268.52490234375	387.8112182617189	-117.1590957641602	1321.760009765625	400.1494445800782	-163.7332305908203	1388.046142578125	77.02877807617189	-143.1529083251953	1416.473754882813	105.1586608886719	-219.3190612792969	1378.921997070313	15.80858421325684	-202.0810241699219	1534.439819335938	94.23536682128908	-194.6486816406251	1523.112060546875	96.049430847168	-155.66552734375	1487.8935546875	52.08706283569337	-111.0569839477539	1061.519165039063	1385.534912109375	-234.8378906250001	954.595886230469	1149.227416992188	-259.2426757812501	1225.710205078125	1050.56787109375	-258.3309020996094	1173.330322265625	1303.026245117188	-245.461166381836	959.9255981445315	1197.288696289063	-342.5561523437501	1005.235290527344	1324.83740234375	-346.3636779785157	1050.072143554688	1329.053588867188	-407.1648559570314	1098.404052734375	1339.168090820313	-419.800262451172	1081.97607421875	1031.543090820313	-513.9129638671876	1054.012817382813	1014.016052246094	-441.637908935547	1056.734741210938	997.307556152344	-489.9485168457032	1245.926635742188	856.8154907226565	-480.5048828125001	1186.559448242188	823.8708496093752	-521.0598754882814	1294.485473632813	813.8847656250002	-493.8206787109376	1214.474609375	768.4551391601565	-521.7122192382814	954.2385253906252	1189.265747070313	-176.8851623535157	1001.944519042969	1311.861572265625	-167.6814575195313	1051.860473632813	1312.594970703125	-95.97397613525392	1098.068237304688	1314.605346679688	-78.4371795654297	1032.217651367188	1004.501647949219	1.403757572174072	1002.472351074219	993.9749755859377	-65.70985412597658	1004.524536132813	978.820007324219	-18.57224273681641	1078.5791015625	780.9239501953127	24.94847106933594	1028.1328125	793.1431274414065	59.19889450073244	1088.516967773438	700.2453002929689	44.18518829345704	1016.686462402344	727.4513549804689	78.00868988037111	
90	0.89	1168.895874023438	880.2546997070315	-389.5871582031251	961.6624755859377	897.599304199219	-285.1910095214844	978.4949340820315	893.0764160156252	-184.8191986083985	1196.926513671875	879.2844238281252	-136.6283264160157	1059.1298828125	788.3465576171877	-433.7182006835939	976.2814941406252	425.3450622558595	-371.3826904296876	968.7608032226565	416.896942138672	-248.5592193603516	938.2385253906252	376.8230590820313	-376.1018371582032	983.0623168945315	348.6784057617188	-323.9022216796876	782.3010253906252	93.04905700683595	-328.6260681152344	798.9215087890627	95.0810012817383	-246.0704498291016	721.6646118164064	62.07765960693361	-277.1938781738282	891.6951904296877	18.42235183715821	-263.5189819335938	895.0296630859377	28.02029037475587	-315.1412658691407	838.8618164062502	15.41635227203369	-354.3689880371094	1117.912353515625	776.8252563476565	-66.02873992919923	1279.622314453125	439.9385986328126	-124.411003112793	1271.121826171875	416.6883850097657	-253.0200347900391	1286.855224609375	386.4282226562501	-117.7750396728516	1339.539794921875	398.4624328613282	-164.8680267333985	1402.868408203125	75.53189086914064	-144.1988830566407	1430.500732421875	102.9632034301758	-220.9627227783204	1391.462890625	15.09360122680664	-202.7190856933594	1548.35205078125	89.77956390380861	-198.0976867675782	1537.730590820313	91.69359588623048	-158.9149627685547	1502.348876953125	48.76861572265626	-113.9061660766602	1077.733154296875	1383.338012695313	-233.5405883789063	971.1007080078127	1146.918579101563	-257.9019165039063	1242.3876953125	1048.95703125	-257.7783508300782	1189.68115234375	1301.112915039063	-244.2419433593751	976.431579589844	1194.990234375	-341.2212524414063	1021.601135253906	1322.617797851563	-345.0459594726563	1066.26171875	1326.8994140625	-405.8479614257814	1114.627197265625	1337.236572265625	-418.5957946777345	1099.163696289063	1029.782470703125	-513.0288696289064	1071.357421875	1011.991149902344	-440.7459106445314	1074.078491210938	995.3166503906252	-489.1167602539064	1264.086303710938	856.020202636719	-479.589080810547	1204.93115234375	822.467712402344	-519.9951782226564	1313.076171875	813.7527465820315	-493.0041503906251	1233.520385742188	767.2700805664064	-520.5617065429689	970.7890625000002	1186.920654296875	-175.6124267578125	1018.343994140625	1309.522827148438	-166.4002532958985	1068.467529296875	1310.24267578125	-94.68291473388673	1114.35400390625	1312.461547851563	-77.21719360351564	1047.624877929688	1002.620666503906	2.578395128250123	1018.0732421875	991.9920043945315	-64.56356811523439	1019.934692382813	977.088317871094	-17.48540115356446	1092.53857421875	778.9686279296877	26.9813575744629	1041.916259765625	791.5921630859377	60.81182861328126	1101.677368164063	698.0850219726564	46.38004302978516	1029.96826171875	726.0936279296876	79.78773498535158	
